<svg xmlns="http://www.w3.org/2000/svg" width="16" height="16" viewBox="0 0 16 16">
  <path fill="#2e3436" d="M0,15 L0,2 Q0,1.801 0.076,1.617 Q0.152,1.434 0.293,1.293 Q0.434,1.152 0.617,1.076 Q0.801,1 1,1 L3,1 Q3.199,1 3.383,1.076 Q3.566,1.152 3.707,1.293 Q3.848,1.434 3.924,1.617 Q4,1.801 4,2 L4,15 Q4,15.199 3.924,15.383 Q3.848,15.566 3.707,15.707 Q3.566,15.848 3.383,15.924 Q3.199,16 3,16 L1,16 Q0.801,16 0.617,15.924 Q0.434,15.848 0.293,15.707 Q0.152,15.566 0.076,15.383 Q0,15.199 0,15 Z M11.871,1.205 L15.465,14.361 Q15.517,14.553 15.492,14.751 Q15.467,14.948 15.368,15.121 Q15.27,15.294 15.113,15.415 Q14.955,15.537 14.764,15.59 Q14.572,15.642 14.374,15.617 Q14.177,15.592 14.004,15.493 Q13.831,15.395 13.71,15.238 Q13.588,15.08 13.535,14.889 L9.942,1.732 Q9.889,1.54 9.914,1.343 Q9.939,1.146 10.038,0.973 Q10.136,0.8 10.294,0.678 Q10.451,0.557 10.643,0.504 Q10.835,0.452 11.032,0.477 Q11.229,0.502 11.402,0.6 Q11.575,0.699 11.697,0.856 Q11.818,1.013 11.871,1.205 Z M10,3 L10,15 Q10,15.199 9.924,15.383 Q9.848,15.566 9.707,15.707 Q9.566,15.848 9.383,15.924 Q9.199,16 9,16 Q8.801,16 8.617,15.924 Q8.434,15.848 8.293,15.707 Q8.152,15.566 8.076,15.383 Q8,15.199 8,15 L8,3 Q8,2.801 8.076,2.617 Q8.152,2.434 8.293,2.293 Q8.434,2.152 8.617,2.076 Q8.801,2 9,2 Q9.199,2 9.383,2.076 Q9.566,2.152 9.707,2.293 Q9.848,2.434 9.924,2.617 Q10,2.801 10,3 Z M5,15 L5,5 Q5,4.801 5.076,4.617 Q5.152,4.434 5.293,4.293 Q5.434,4.152 5.617,4.076 Q5.801,4 6,4 Q6.199,4 6.383,4.076 Q6.566,4.152 6.707,4.293 Q6.848,4.434 6.924,4.617 Q7,4.801 7,5 L7,15 Q7,15.199 6.924,15.383 Q6.848,15.566 6.707,15.707 Q6.566,15.848 6.383,15.924 Q6.199,16 6,16 Q5.801,16 5.617,15.924 Q5.434,15.848 5.293,15.707 Q5.152,15.566 5.076,15.383 Q5,15.199 5,15 Z"/>
</svg>
